<svg width="157" height="44" viewBox="0 0 157 44" fill="none" xmlns="http://www.w3.org/2000/svg">
<g filter="url(#filter0_b_70_32)">
<mask id="path-1-inside-1_70_32" fill="white">
<path d="M0 4C0 1.79086 1.79086 0 4 0H153C155.209 0 157 1.79086 157 4V40C157 42.2091 155.209 44 153 44H4C1.79086 44 0 42.2091 0 40V4Z"/>
</mask>
<path d="M0 4C0 1.79086 1.79086 0 4 0H153C155.209 0 157 1.79086 157 4V40C157 42.2091 155.209 44 153 44H4C1.79086 44 0 42.2091 0 40V4Z" fill="white" fill-opacity="0.47"/>
<path d="M4 1H153V-1H4V1ZM156 4V40H158V4H156ZM153 43H4V45H153V43ZM1 40V4H-1V40H1ZM4 43C2.34315 43 1 41.6569 1 40H-1C-1 42.7614 1.23858 45 4 45V43ZM156 40C156 41.6569 154.657 43 153 43V45C155.761 45 158 42.7614 158 40H156ZM153 1C154.657 1 156 2.34315 156 4H158C158 1.23858 155.761 -1 153 -1V1ZM4 -1C1.23858 -1 -1 1.23857 -1 4H1C1 2.34315 2.34315 1 4 1V-1Z" fill="white" fill-opacity="0.1" mask="url(#path-1-inside-1_70_32)"/>
<path d="M38.9091 28V16.3636H42.8409C43.75 16.3636 44.4962 16.5189 45.0795 16.8295C45.6629 17.1364 46.0947 17.5587 46.375 18.0966C46.6553 18.6345 46.7955 19.2462 46.7955 19.9318C46.7955 20.6174 46.6553 21.2254 46.375 21.7557C46.0947 22.286 45.6648 22.7027 45.0852 23.0057C44.5057 23.3049 43.7652 23.4545 42.8636 23.4545H39.6818V22.1818H42.8182C43.4394 22.1818 43.9394 22.0909 44.3182 21.9091C44.7008 21.7273 44.9773 21.4697 45.1477 21.1364C45.322 20.7992 45.4091 20.3977 45.4091 19.9318C45.4091 19.4659 45.322 19.0587 45.1477 18.7102C44.9735 18.3617 44.6951 18.0928 44.3125 17.9034C43.9299 17.7102 43.4242 17.6136 42.7955 17.6136H40.3182V28H38.9091ZM44.3864 22.7727L47.25 28H45.6136L42.7955 22.7727H44.3864ZM52.527 28.1818C51.6861 28.1818 50.9607 27.9962 50.3509 27.625C49.7448 27.25 49.277 26.7273 48.9474 26.0568C48.6217 25.3826 48.4588 24.5985 48.4588 23.7045C48.4588 22.8106 48.6217 22.0227 48.9474 21.3409C49.277 20.6553 49.7353 20.1212 50.3224 19.7386C50.9134 19.3523 51.6027 19.1591 52.3906 19.1591C52.8452 19.1591 53.294 19.2348 53.7372 19.3864C54.1804 19.5379 54.5838 19.7841 54.9474 20.125C55.3111 20.4621 55.6009 20.9091 55.8168 21.4659C56.0327 22.0227 56.1406 22.7083 56.1406 23.5227V24.0909H49.4134V22.9318H54.777C54.777 22.4394 54.6785 22 54.4815 21.6136C54.2884 21.2273 54.0118 20.9223 53.652 20.6989C53.2959 20.4754 52.8755 20.3636 52.3906 20.3636C51.8565 20.3636 51.3944 20.4962 51.0043 20.7614C50.6179 21.0227 50.3205 21.3636 50.1122 21.7841C49.9039 22.2045 49.7997 22.6553 49.7997 23.1364V23.9091C49.7997 24.5682 49.9134 25.1269 50.1406 25.5852C50.3717 26.0398 50.6918 26.3864 51.1009 26.625C51.5099 26.8598 51.9853 26.9773 52.527 26.9773C52.8793 26.9773 53.1974 26.928 53.4815 26.8295C53.7694 26.7273 54.0175 26.5758 54.2259 26.375C54.4342 26.1705 54.5952 25.9167 54.7088 25.6136L56.0043 25.9773C55.8679 26.4167 55.6387 26.803 55.3168 27.1364C54.9948 27.4659 54.5971 27.7235 54.1236 27.9091C53.6501 28.0909 53.1179 28.1818 52.527 28.1818ZM60.7486 28.2045C60.1955 28.2045 59.6937 28.1004 59.2429 27.892C58.7921 27.6799 58.4342 27.375 58.169 26.9773C57.9039 26.5758 57.7713 26.0909 57.7713 25.5227C57.7713 25.0227 57.8698 24.6174 58.0668 24.3068C58.2637 23.9924 58.527 23.7462 58.8565 23.5682C59.1861 23.3902 59.5497 23.2576 59.9474 23.1705C60.349 23.0795 60.7524 23.0076 61.1577 22.9545C61.688 22.8864 62.1179 22.8352 62.4474 22.8011C62.7808 22.7633 63.0232 22.7008 63.1747 22.6136C63.33 22.5265 63.4077 22.375 63.4077 22.1591V22.1136C63.4077 21.553 63.2543 21.1174 62.9474 20.8068C62.6444 20.4962 62.1842 20.3409 61.5668 20.3409C60.9266 20.3409 60.4247 20.4811 60.0611 20.7614C59.6974 21.0417 59.4418 21.3409 59.294 21.6591L58.0213 21.2045C58.2486 20.6742 58.5516 20.2614 58.9304 19.9659C59.313 19.6667 59.7296 19.4583 60.1804 19.3409C60.6349 19.2197 61.0819 19.1591 61.5213 19.1591C61.8016 19.1591 62.1236 19.1932 62.4872 19.2614C62.8546 19.3258 63.2088 19.4602 63.5497 19.6648C63.8944 19.8693 64.1804 20.178 64.4077 20.5909C64.6349 21.0038 64.7486 21.5568 64.7486 22.25V28H63.4077V26.8182H63.3395C63.2486 27.0076 63.0971 27.2102 62.8849 27.4261C62.6728 27.642 62.3906 27.8258 62.0384 27.9773C61.6861 28.1288 61.2562 28.2045 60.7486 28.2045ZM60.9531 27C61.4834 27 61.9304 26.8958 62.294 26.6875C62.6615 26.4792 62.938 26.2102 63.1236 25.8807C63.313 25.5511 63.4077 25.2045 63.4077 24.8409V23.6136C63.3509 23.6818 63.2259 23.7443 63.0327 23.8011C62.8433 23.8542 62.6236 23.9015 62.3736 23.9432C62.1274 23.9811 61.8868 24.0152 61.652 24.0455C61.4209 24.072 61.2334 24.0947 61.0895 24.1136C60.741 24.1591 60.4152 24.233 60.1122 24.3352C59.813 24.4337 59.5705 24.5833 59.3849 24.7841C59.2031 24.9811 59.1122 25.25 59.1122 25.5909C59.1122 26.0568 59.2846 26.4091 59.6293 26.6477C59.9777 26.8826 60.419 27 60.9531 27ZM70.4915 28.1818C69.7642 28.1818 69.1222 27.9981 68.5653 27.6307C68.0085 27.2595 67.5729 26.7367 67.2585 26.0625C66.9441 25.3845 66.7869 24.5833 66.7869 23.6591C66.7869 22.7424 66.9441 21.947 67.2585 21.2727C67.5729 20.5985 68.0104 20.0777 68.571 19.7102C69.1316 19.3428 69.7794 19.1591 70.5142 19.1591C71.0824 19.1591 71.5313 19.2538 71.8608 19.4432C72.1941 19.6288 72.4479 19.8409 72.6222 20.0795C72.8002 20.3144 72.9384 20.5076 73.0369 20.6591H73.1506V16.3636H74.4915V28H73.196V26.6591H73.0369C72.9384 26.8182 72.7983 27.0189 72.6165 27.2614C72.4347 27.5 72.1752 27.714 71.8381 27.9034C71.5009 28.089 71.0521 28.1818 70.4915 28.1818ZM70.6733 26.9773C71.2112 26.9773 71.6657 26.8371 72.0369 26.5568C72.4081 26.2727 72.6903 25.8807 72.8835 25.3807C73.0767 24.8769 73.1733 24.2955 73.1733 23.6364C73.1733 22.9848 73.0786 22.4148 72.8892 21.9261C72.6998 21.4337 72.4195 21.0511 72.0483 20.7784C71.6771 20.5019 71.2188 20.3636 70.6733 20.3636C70.1051 20.3636 69.6316 20.5095 69.2528 20.8011C68.8778 21.089 68.5956 21.4811 68.4062 21.9773C68.2206 22.4697 68.1278 23.0227 68.1278 23.6364C68.1278 24.2576 68.2225 24.822 68.4119 25.3295C68.6051 25.8333 68.8892 26.2348 69.2642 26.5341C69.643 26.8295 70.1127 26.9773 70.6733 26.9773ZM81.8153 16.3636H83.4972L87.4517 26.0227H87.5881L91.5426 16.3636H93.2244V28H91.9062V19.1591H91.7926L88.1562 28H86.8835L83.2472 19.1591H83.1335V28H81.8153V16.3636ZM99.4134 28.1818C98.6255 28.1818 97.9342 27.9943 97.3395 27.6193C96.7486 27.2443 96.2865 26.7197 95.9531 26.0455C95.6236 25.3712 95.4588 24.5833 95.4588 23.6818C95.4588 22.7727 95.6236 21.9792 95.9531 21.3011C96.2865 20.6231 96.7486 20.0966 97.3395 19.7216C97.9342 19.3466 98.6255 19.1591 99.4134 19.1591C100.201 19.1591 100.891 19.3466 101.482 19.7216C102.076 20.0966 102.538 20.6231 102.868 21.3011C103.201 21.9792 103.368 22.7727 103.368 23.6818C103.368 24.5833 103.201 25.3712 102.868 26.0455C102.538 26.7197 102.076 27.2443 101.482 27.6193C100.891 27.9943 100.201 28.1818 99.4134 28.1818ZM99.4134 26.9773C100.012 26.9773 100.504 26.8239 100.891 26.517C101.277 26.2102 101.563 25.8068 101.749 25.3068C101.934 24.8068 102.027 24.2652 102.027 23.6818C102.027 23.0985 101.934 22.5549 101.749 22.0511C101.563 21.5473 101.277 21.1402 100.891 20.8295C100.504 20.5189 100.012 20.3636 99.4134 20.3636C98.8149 20.3636 98.3224 20.5189 97.9361 20.8295C97.5497 21.1402 97.2637 21.5473 97.0781 22.0511C96.8925 22.5549 96.7997 23.0985 96.7997 23.6818C96.7997 24.2652 96.8925 24.8068 97.0781 25.3068C97.2637 25.8068 97.5497 26.2102 97.9361 26.517C98.3224 26.8239 98.8149 26.9773 99.4134 26.9773ZM105.415 28V19.2727H106.71V20.5909H106.801C106.96 20.1591 107.248 19.8087 107.665 19.5398C108.081 19.2708 108.551 19.1364 109.074 19.1364C109.172 19.1364 109.295 19.1383 109.443 19.142C109.591 19.1458 109.703 19.1515 109.778 19.1591V20.5227C109.733 20.5114 109.629 20.4943 109.466 20.4716C109.307 20.4451 109.138 20.4318 108.96 20.4318C108.536 20.4318 108.157 20.5208 107.824 20.6989C107.494 20.8731 107.233 21.1155 107.04 21.4261C106.85 21.733 106.756 22.0833 106.756 22.4773V28H105.415ZM114.761 28.1818C113.92 28.1818 113.195 27.9962 112.585 27.625C111.979 27.25 111.511 26.7273 111.182 26.0568C110.856 25.3826 110.693 24.5985 110.693 23.7045C110.693 22.8106 110.856 22.0227 111.182 21.3409C111.511 20.6553 111.97 20.1212 112.557 19.7386C113.148 19.3523 113.837 19.1591 114.625 19.1591C115.08 19.1591 115.528 19.2348 115.972 19.3864C116.415 19.5379 116.818 19.7841 117.182 20.125C117.545 20.4621 117.835 20.9091 118.051 21.4659C118.267 22.0227 118.375 22.7083 118.375 23.5227V24.0909H111.648V22.9318H117.011C117.011 22.4394 116.913 22 116.716 21.6136C116.523 21.2273 116.246 20.9223 115.886 20.6989C115.53 20.4754 115.11 20.3636 114.625 20.3636C114.091 20.3636 113.629 20.4962 113.239 20.7614C112.852 21.0227 112.555 21.3636 112.347 21.7841C112.138 22.2045 112.034 22.6553 112.034 23.1364V23.9091C112.034 24.5682 112.148 25.1269 112.375 25.5852C112.606 26.0398 112.926 26.3864 113.335 26.625C113.744 26.8598 114.22 26.9773 114.761 26.9773C115.114 26.9773 115.432 26.928 115.716 26.8295C116.004 26.7273 116.252 26.5758 116.46 26.375C116.669 26.1705 116.83 25.9167 116.943 25.6136L118.239 25.9773C118.102 26.4167 117.873 26.803 117.551 27.1364C117.229 27.4659 116.831 27.7235 116.358 27.9091C115.884 28.0909 115.352 28.1818 114.761 28.1818Z" fill="#303030"/>
</g>
<defs>
<filter id="filter0_b_70_32" x="-19.8" y="-19.8" width="196.6" height="83.6" filterUnits="userSpaceOnUse" color-interpolation-filters="sRGB">
<feFlood flood-opacity="0" result="BackgroundImageFix"/>
<feGaussianBlur in="BackgroundImageFix" stdDeviation="9.9"/>
<feComposite in2="SourceAlpha" operator="in" result="effect1_backgroundBlur_70_32"/>
<feBlend mode="normal" in="SourceGraphic" in2="effect1_backgroundBlur_70_32" result="shape"/>
</filter>
</defs>
</svg>
