<svg width="48" height="49" viewBox="0 0 48 49" fill="none" xmlns="http://www.w3.org/2000/svg">
<path d="M42.8936 42.9806L30.2978 30.3848M5.10632 19.8884C5.10632 21.8182 5.48642 23.7291 6.22492 25.5119C6.96341 27.2948 8.04584 28.9148 9.4104 30.2794C10.775 31.6439 12.3949 32.7263 14.1778 33.4648C15.9607 34.2033 17.8716 34.5834 19.8014 34.5834C21.7311 34.5834 23.642 34.2033 25.4249 33.4648C27.2078 32.7263 28.8278 31.6439 30.1923 30.2794C31.5569 28.9148 32.6393 27.2948 33.3778 25.5119C34.1163 23.7291 34.4964 21.8182 34.4964 19.8884C34.4964 17.9586 34.1163 16.0477 33.3778 14.2648C32.6393 12.482 31.5569 10.862 30.1923 9.49744C28.8278 8.13287 27.2078 7.05045 25.4249 6.31195C23.642 5.57346 21.7311 5.19336 19.8014 5.19336C17.8716 5.19336 15.9607 5.57346 14.1778 6.31195C12.3949 7.05045 10.775 8.13287 9.4104 9.49744C8.04584 10.862 6.96341 12.482 6.22492 14.2648C5.48642 16.0477 5.10632 17.9586 5.10632 19.8884Z" stroke="white" stroke-width="4.19858" stroke-linecap="round" stroke-linejoin="round"/>
</svg>
